PathFileType	4	(X/Y/Z)	c:\Git\powerlifing_model_clean\simulations\HC835B\Session1\HC835B_OGR_0003\marker_experimental.trc
DataRate	CameraRate	NumFrames	NumMarkers	Units	OrigDataRate	OrigDataStartFrame	OrigNumFrames
240.000000	240.000000	4	38	mm	240.000000	188	215
Frame#	Time	RPSI			LPSI			RASI			LASI			RTH1			RTH2			RTH3			RTH4			RSK1			RSK2			RSK3			RSK4			RCAL1			RCAL2			RCAL3			RST			RPT			RTN			RFMB			RSMB			RVMB			RFMH			RSMH			RVMH			RPM			LTH1			LTH2			LTH3			LTH4			LSK1			LSK2			LSK3			LSK4			LCAL1			LCAL2			LCAL3			LFMH			LVMH			
		X1	Y1	Z1	X2	Y2	Z2	X3	Y3	Z3	X4	Y4	Z4	X5	Y5	Z5	X6	Y6	Z6	X7	Y7	Z7	X8	Y8	Z8	X9	Y9	Z9	X10	Y10	Z10	X11	Y11	Z11	X12	Y12	Z12	X13	Y13	Z13	X14	Y14	Z14	X15	Y15	Z15	X16	Y16	Z16	X17	Y17	Z17	X18	Y18	Z18	X19	Y19	Z19	X20	Y20	Z20	X21	Y21	Z21	X22	Y22	Z22	X23	Y23	Z23	X24	Y24	Z24	X25	Y25	Z25	X26	Y26	Z26	X27	Y27	Z27	X28	Y28	Z28	X29	Y29	Z29	X30	Y30	Z30	X31	Y31	Z31	X32	Y32	Z32	X33	Y33	Z33	X34	Y34	Z34	X35	Y35	Z35	X36	Y36	Z36	X37	Y37	Z37	X38	Y38	Z38	

189	0.7833333333333333	496.3050231933595	1193.381103515625	-2363.766357421875	383.7726135253907	1197.350219726563	-2368.580810546875	558.0045166015626	1122.150268554688	-2554.914306640625	324.1976318359376	1115.024780273438	-2557.844970703125	624.6897583007814	833.792907714844	-2538.11328125	606.0135498046876	839.4385375976565	-2596.236083984375	610.3690795898439	762.1266479492189	-2580.836181640625	581.6015014648439	765.7720947265626	-2631.899658203125	548.6610717773439	318.2676086425782	-2617.09375	555.2884521484376	317.2269287109376	-2678.477294921875	543.1724853515626	267.1668701171876	-2645.538818359375	539.1852416992189	268.9031982421876	-2705.66943359375	472.9537658691407	106.2436752319336	-2631.8154296875	434.1893615722657	81.61135101318361	-2652.524658203125	495.2648925781251	64.42614746093751	-2645.944091796875	434.3584289550782	116.8055419921875	-2715.745361328125	527.8169555664064	83.51293182373048	-2698.37646484375	458.1419372558595	144.5716400146485	-2764.1953125	461.3436279296876	133.4434051513672	-2797.97802734375	514.5289306640626	146.7065124511719	-2799.113525390625	537.0355834960939	67.09823608398439	-2747.544921875	457.4449462890626	118.0707550048828	-2858.33154296875	514.4189453125001	123.4320220947266	-2863.55224609375	560.9110717773439	72.1141815185547	-2824.00439453125	510.3815002441407	135.7877044677735	-2917.560546875	254.7796173095704	855.3792724609377	-2367.9453125	265.3318786621094	822.0913085937502	-2417.77490234375	263.2496337890626	770.4133911132815	-2354.18408203125	287.1950378417969	739.6315917968751	-2400.96630859375	302.0785217285157	513.3884277343751	-1988.454833984375	290.4075317382813	463.0659179687501	-2002.786376953125	302.3905334472657	468.1651611328126	-1954.328125	305.8600769042969	414.8129272460939	-1973.894287109375	371.5946350097657	436.6793823242189	-1827.90478515625	352.5349426269532	424.9333801269532	-1785.359252929688	408.8199462890626	420.6607666015626	-1802.273315429688	395.3524780273439	212.9338531494141	-1877.45654296875	302.0684509277344	239.2439575195313	-1806.58154296875	
190	0.7875	497.1680297851564	1190.701416015625	-2378.221435546875	384.6505432128907	1195.272583007813	-2382.8544921875	557.9901733398439	1119.36962890625	-2569.178955078125	323.9419555664063	1113.758666992188	-2572.35009765625	625.3820190429689	830.6863403320315	-2550.5068359375	606.1574707031251	836.1809082031252	-2608.522705078125	610.4651489257814	758.8024902343751	-2592.5693359375	581.6726684570314	762.2102661132814	-2643.6396484375	548.8804931640626	315.2339477539063	-2633.769775390625	555.5094604492189	314.9666442871094	-2695.14306640625	543.5446166992189	264.4852294921876	-2662.90283203125	539.4545898437501	267.0278015136719	-2722.947998046875	474.2820434570314	103.475212097168	-2651.25439453125	435.2073974609376	78.9782180786133	-2671.58251953125	496.3894958496095	61.89552688598634	-2665.959716796875	434.6808166503907	114.8274993896485	-2734.50634765625	528.2987670898439	81.58078765869142	-2718.600830078125	457.7602539062501	143.202880859375	-2782.986083984375	460.4404602050782	132.4978637695313	-2816.71240234375	513.6498413085939	145.8837432861328	-2818.413818359375	536.9663085937501	65.7848587036133	-2768.048583984375	455.812957763672	117.7553024291992	-2877.074462890625	512.7302856445314	123.453125	-2883.053955078125	559.8454589843751	71.70606231689455	-2844.6923828125	508.0086975097657	136.5362854003907	-2936.7900390625	254.5514678955079	853.0275878906252	-2383.330322265625	264.6184082031251	820.0991210937502	-2433.480224609375	262.4156188964844	768.1184082031252	-2370.286865234375	286.0049743652344	737.2805175781251	-2417.14013671875	302.5728759765626	517.6702270507814	-2002.435913085938	290.1458740234376	467.2404174804689	-2015.355224609375	302.6427307128907	473.4834289550782	-1967.134887695313	305.3472595214844	419.4061279296876	-1985.348022460938	372.4187622070313	444.6106872558595	-1840.373779296875	353.5900268554688	433.9875488281251	-1797.406860351563	409.8400268554689	428.8487243652345	-1814.6767578125	394.0272216796876	219.6329956054688	-1884.965576171875	301.4782104492188	248.2785034179688	-1814.0546875	
191	0.7916666666666666	498.0885620117189	1187.848022460938	-2392.54150390625	385.4632568359376	1192.959106445313	-2396.832275390625	557.9585571289064	1116.373779296875	-2583.426025390625	323.8498229980469	1112.224243164063	-2586.5537109375	625.9174194335939	827.6265258789065	-2562.991455078125	606.8872680664064	832.830993652344	-2621.146728515625	610.4692382812501	755.5770263671876	-2604.588134765625	581.9578247070314	758.9063110351564	-2655.85595703125	549.1077270507814	312.2171630859376	-2649.87744140625	555.7041625976564	312.7601623535157	-2711.263671875	543.7672729492189	261.7435607910157	-2679.60888671875	539.6027832031251	265.2220153808594	-2739.6484375	475.4155883789064	100.6759643554688	-2669.60791015625	436.1719360351564	76.26387786865236	-2689.704833984375	497.4350891113282	59.27150344848634	-2685.007080078125	434.8545532226564	112.8571243286133	-2752.218994140625	528.6619873046876	79.51906585693361	-2737.83251953125	457.2071838378907	141.7212677001953	-2800.774169921875	459.4251098632814	131.2875213623047	-2834.422607421875	512.6414794921876	144.7627716064453	-2836.7353515625	536.7266235351564	64.22299194335939	-2787.454345703125	453.9663696289064	117.1184387207032	-2894.8994140625	510.8482971191407	123.0013656616211	-2901.547119140625	558.5949096679689	70.93682098388673	-2864.23828125	505.5454101562501	137.0660858154297	-2954.94580078125	254.2066955566407	850.624694824219	-2398.706787109375	263.7749633789063	817.9197998046877	-2449.108642578125	261.6574401855469	765.3886718750001	-2386.035400390625	284.5867614746094	734.8198242187501	-2433.36279296875	302.9678649902344	521.7410888671876	-2016.904418945313	290.0091857910157	471.1481933593751	-2028.33544921875	302.8473510742188	478.4668884277345	-1980.438598632813	304.9335327148438	424.604461669922	-1997.152099609375	373.2604980468751	452.4524841308595	-1853.406982421875	354.6203308105469	442.994354248047	-1810.07470703125	410.408172607422	437.0911560058595	-1827.544555664063	392.6919555664064	226.3079528808594	-1892.808471679688	300.8237304687501	257.3881225585938	-1822.077880859375	
192	0.7958333333333333	499.013641357422	1184.469604492188	-2406.847412109375	386.3399963378907	1190.321655273438	-2410.783935546875	557.7564086914064	1113.257446289063	-2597.52392578125	323.7306213378907	1110.442138671875	-2600.648681640625	626.3099365234376	824.6370239257815	-2575.692138671875	607.5359497070314	829.7466430664065	-2633.937744140625	610.3358764648439	752.5482788085939	-2617.006591796875	582.4140014648439	755.9461669921876	-2668.698974609375	549.2257690429689	309.1296997070313	-2665.277099609375	555.5980834960939	310.3042907714844	-2726.670166015625	543.8734741210939	258.9629821777344	-2695.57080078125	537.6876831054689	261.9911499023438	-2755.396484375	476.187713623047	97.592887878418	-2686.912841796875	436.8731994628907	73.52356719970705	-2706.5009765625	498.1897277832032	56.48304748535158	-2702.996337890625	435.5118408203126	110.4321060180664	-2769.269287109375	528.7957153320314	77.27833557128908	-2756.0263671875	456.6138610839845	139.9042205810547	-2817.573974609375	459.2998962402345	130.1330718994141	-2851.752197265625	511.598358154297	143.3467102050782	-2854.04736328125	536.2760620117189	62.30186462402345	-2805.88330078125	452.1053466796876	116.2018051147461	-2911.561767578125	508.6947326660157	122.046127319336	-2919.219970703125	557.1042480468751	69.80481719970705	-2882.857177734375	502.9962463378907	137.1649932861328	-2972.058837890625	253.8040466308594	848.050720214844	-2413.9716796875	262.8149108886719	815.608581542969	-2464.623046875	260.6865234375001	762.8129882812501	-2401.94482421875	282.9721679687501	732.2819824218751	-2449.581298828125	303.2580871582032	525.5496215820314	-2031.8310546875	289.8701782226563	474.7992553710939	-2041.798461914063	303.0496215820313	483.2478637695314	-1994.228881835938	304.6383666992188	428.9844665527345	-2009.505126953125	374.1489257812501	460.1516113281251	-1866.881958007813	355.6278991699219	451.8723449707032	-1823.285278320313	411.2300720214845	445.0519409179689	-1840.913330078125	391.4233703613282	232.9061126708985	-1900.953125	300.0742187500001	266.5515441894532	-1830.715087890625	
